<svg width="87" height="32" viewBox="0 0 87 32" fill="none" xmlns="http://www.w3.org/2000/svg">
<g clip-path="url(#clip0_15713_89192)">
<path d="M3.2796 5.82031H0.656212C0.293761 5.82031 0 6.12285 0 6.49764V25.4538C0 25.8271 0.293761 26.1311 0.656212 26.1311H3.2796C3.64205 26.1311 3.93581 25.8286 3.93581 25.4538V6.49764C3.93581 6.12436 3.64205 5.82031 3.2796 5.82031Z" fill="url(#paint0_linear_15713_89192)"/>
<path d="M33.3441 5.82031H30.7207C30.3582 5.82031 30.0645 6.12285 30.0645 6.49764V25.4538C30.0645 25.8271 30.3582 26.1311 30.7207 26.1311H33.3441C33.7065 26.1311 34.0003 25.8286 34.0003 25.4538V6.49764C34.0003 6.12436 33.7065 5.82031 33.3441 5.82031Z" fill="url(#paint1_linear_15713_89192)"/>
<path d="M86.3441 5.82031H83.7207C83.3582 5.82031 83.0645 6.12285 83.0645 6.49764V25.4538C83.0645 25.8271 83.3582 26.1311 83.7207 26.1311H86.3441C86.7065 26.1311 87.0003 25.8286 87.0003 25.4538V6.49764C87.0003 6.12436 86.7065 5.82031 86.3441 5.82031Z" fill="url(#paint2_linear_15713_89192)"/>
<path d="M62.9261 28.0742H60.3027C59.9402 28.0742 59.6465 28.3768 59.6465 28.7515V31.3239C59.6465 31.6972 59.9402 32.0012 60.3027 32.0012H62.9261C63.2885 32.0012 63.5823 31.6987 63.5823 31.3239V28.7515C63.5823 28.3783 63.2885 28.0742 62.9261 28.0742Z" fill="url(#paint3_linear_15713_89192)"/>
<path d="M55.8954 5.82185H53.2721C52.9096 5.82185 52.6158 6.12439 52.6158 6.49918V7.74095C50.7627 6.47811 48.1174 5.80078 46.3022 5.80078C40.4372 5.82336 36.4648 10.3479 36.4648 15.9562C36.4648 21.5645 40.8698 26.1116 46.3022 26.1116C48.718 26.1116 50.8241 25.0866 52.6158 23.6883V25.4568C52.6158 25.8301 52.9096 26.1342 53.2721 26.1342H55.8954C56.2579 26.1342 56.5517 25.8316 56.5517 25.4568V6.49918C56.5517 6.1259 56.2579 5.82185 55.8954 5.82185ZM46.5492 22.2388C43.198 22.2388 40.4825 19.4346 40.4825 15.9758C40.4825 12.5169 43.1994 9.71273 46.5492 9.71273C49.8989 9.71273 52.6158 12.5169 52.6158 15.9758C52.6158 19.4346 49.8989 22.2388 46.5492 22.2388Z" fill="url(#paint4_linear_15713_89192)"/>
<path d="M86.3441 0H83.7207C83.3582 0 83.0645 0.30254 83.0645 0.677328V3.24967C83.0645 3.62295 83.3582 3.927 83.7207 3.927H86.3441C86.7065 3.927 87.0003 3.62446 87.0003 3.24967V0.677328C87.0003 0.304045 86.7065 0 86.3441 0Z" fill="url(#paint5_linear_15713_89192)"/>
<path d="M22.8261 4.63012H25.4495C25.812 4.63012 26.1057 4.32758 26.1057 3.9528V1.38045C26.1057 1.00717 25.812 0.703125 25.4495 0.703125H22.8261C22.4637 0.703125 22.1699 1.00567 22.1699 1.38045V3.9528C22.1699 4.32608 22.4637 4.63012 22.8261 4.63012Z" fill="url(#paint6_linear_15713_89192)"/>
<path d="M16.9994 5.125C11.2046 5.125 6.50586 9.97467 6.50586 15.9562C6.50586 21.9378 11.2046 26.7875 16.9994 26.7875C22.7942 26.7875 27.493 21.9378 27.493 15.9562C27.493 9.97467 22.7942 5.125 16.9994 5.125ZM16.9994 22.728C13.3822 22.728 10.4387 19.6906 10.4387 15.9562C10.4387 12.2219 13.3822 9.18445 16.9994 9.18445C20.6166 9.18445 23.5601 12.2219 23.5601 15.9562C23.5601 19.6906 20.6166 22.728 16.9994 22.728Z" fill="url(#paint7_linear_15713_89192)"/>
<path d="M69.896 5.80229C68.0808 5.80229 65.4355 6.47961 63.5823 7.74246V6.50069C63.5823 6.1274 63.2885 5.82336 62.9261 5.82336H60.3027C59.9402 5.82336 59.6465 6.1259 59.6465 6.50069V25.4343C59.6465 25.8076 59.9402 26.1116 60.3027 26.1116H62.9261C63.2885 26.1116 63.5823 25.8091 63.5823 25.4343V23.6883C65.3741 25.0866 67.4801 26.1116 69.896 26.1116C75.3298 26.1116 79.7333 21.5645 79.7333 15.9562C79.7333 10.3479 75.761 5.82336 69.896 5.80078V5.80229ZM69.649 22.2403C66.2992 22.2403 63.5823 19.4362 63.5823 15.9788C63.5823 12.5184 66.2992 9.71574 69.649 9.71574C72.9987 9.71574 75.7156 12.5199 75.7156 15.9788C75.7156 19.4377 72.9987 22.2418 69.649 22.2418V22.2403Z" fill="url(#paint8_linear_15713_89192)"/>
</g>
<defs>
<linearGradient id="paint0_linear_15713_89192" x1="-0.863469" y1="-0.180612" x2="7.42813" y2="0.416845" gradientUnits="userSpaceOnUse">
<stop offset="0.0240385" stop-color="#6199FF"/>
<stop offset="1" stop-color="#43FF81"/>
</linearGradient>
<linearGradient id="paint1_linear_15713_89192" x1="29.201" y1="-0.180612" x2="37.4926" y2="0.416844" gradientUnits="userSpaceOnUse">
<stop offset="0.0240385" stop-color="#6199FF"/>
<stop offset="1" stop-color="#43FF81"/>
</linearGradient>
<linearGradient id="paint2_linear_15713_89192" x1="82.201" y1="-0.180612" x2="90.4926" y2="0.416847" gradientUnits="userSpaceOnUse">
<stop offset="0.0240385" stop-color="#6199FF"/>
<stop offset="1" stop-color="#43FF81"/>
</linearGradient>
<linearGradient id="paint3_linear_15713_89192" x1="58.783" y1="26.914" x2="66.1012" y2="29.6413" gradientUnits="userSpaceOnUse">
<stop offset="0.0240385" stop-color="#6199FF"/>
<stop offset="1" stop-color="#43FF81"/>
</linearGradient>
<linearGradient id="paint4_linear_15713_89192" x1="32.058" y1="-0.206813" x2="69.5375" y2="13.5607" gradientUnits="userSpaceOnUse">
<stop offset="0.0240385" stop-color="#6199FF"/>
<stop offset="1" stop-color="#43FF81"/>
</linearGradient>
<linearGradient id="paint5_linear_15713_89192" x1="82.201" y1="-1.16025" x2="89.5192" y2="1.56711" gradientUnits="userSpaceOnUse">
<stop offset="0.0240385" stop-color="#6199FF"/>
<stop offset="1" stop-color="#43FF81"/>
</linearGradient>
<linearGradient id="paint6_linear_15713_89192" x1="21.3065" y1="-0.457125" x2="28.6247" y2="2.27022" gradientUnits="userSpaceOnUse">
<stop offset="0.0240385" stop-color="#6199FF"/>
<stop offset="1" stop-color="#43FF81"/>
</linearGradient>
<linearGradient id="paint7_linear_15713_89192" x1="1.90155" y1="-1.27527" x2="41.2394" y2="12.8963" gradientUnits="userSpaceOnUse">
<stop offset="0.0240385" stop-color="#6199FF"/>
<stop offset="1" stop-color="#43FF81"/>
</linearGradient>
<linearGradient id="paint8_linear_15713_89192" x1="55.2397" y1="-0.200143" x2="92.7092" y2="13.579" gradientUnits="userSpaceOnUse">
<stop offset="0.0240385" stop-color="#6199FF"/>
<stop offset="1" stop-color="#43FF81"/>
</linearGradient>
<clipPath id="clip0_15713_89192">
<rect width="87" height="32" fill="white"/>
</clipPath>
</defs>
</svg>
